<svg width="61" height="61" viewBox="0 0 61 61" fill="none" xmlns="http://www.w3.org/2000/svg">
<path d="M30.5 9.8773C30.5 8.05369 29.7756 6.30477 28.4861 5.01529C27.1966 3.72581 25.4477 3.00138 23.6241 3.00138C21.8005 3.00138 20.0516 3.72581 18.7621 5.01529C17.4726 6.30477 16.7482 8.05369 16.7482 9.8773C15.285 9.87688 13.848 10.2656 12.5845 11.0035C11.321 11.7415 10.2765 12.8021 9.55798 14.0768C8.83949 15.3514 8.47287 16.7942 8.49571 18.2572C8.51856 19.7202 8.93004 21.1509 9.68798 22.4025C7.80546 22.7662 6.10831 23.774 4.8879 25.2528C3.6675 26.7316 3 28.5891 3 30.5064C3 32.4238 3.6675 34.2813 4.8879 35.7601C6.10831 37.2388 7.80546 38.2466 9.68798 38.6104C8.93074 39.8619 8.51983 41.2923 8.49735 42.7549C8.47487 44.2175 8.84162 45.6598 9.56003 46.934C10.2784 48.2082 11.3227 49.2685 12.5858 50.0064C13.8489 50.7442 15.2854 51.1329 16.7482 51.1328C16.7485 52.9564 17.4733 54.7052 18.763 55.9944C20.0528 57.2836 21.8019 58.0077 23.6255 58.0073C25.4491 58.007 27.1978 57.2822 28.4871 55.9924C29.7763 54.7027 30.5004 52.9536 30.5 51.13" stroke="#22223B" stroke-width="4.12555" stroke-linecap="round" stroke-linejoin="round"/>
<path d="M30.5 51.1328C30.5 52.9564 31.2244 54.7053 32.5139 55.9948C33.8034 57.2843 35.5523 58.0087 37.3759 58.0087C39.1995 58.0087 40.9484 57.2843 42.2379 55.9948C43.5274 54.7053 44.2518 52.9564 44.2518 51.1328C45.7146 51.1329 47.1511 50.7441 48.4142 50.0063C49.6773 49.2685 50.7216 48.2082 51.44 46.934C52.1584 45.6598 52.5251 44.2175 52.5027 42.7549C52.4802 41.2922 52.0693 39.8619 51.312 38.6104C53.1945 38.2466 54.8917 37.2388 56.1121 35.7601C57.3325 34.2813 58 32.4237 58 30.5064C58 28.5891 57.3325 26.7315 56.1121 25.2528C54.8917 23.774 53.1945 22.7662 51.312 22.4025C52.07 21.1509 52.4814 19.7202 52.5043 18.2572C52.5271 16.7942 52.1605 15.3514 51.442 14.0768C50.7235 12.8021 49.679 11.7414 48.4155 11.0035C47.152 10.2656 45.715 9.87687 44.2518 9.87729C44.252 8.97433 44.0743 8.08018 43.729 7.24589C43.3836 6.41159 42.8773 5.6535 42.2389 5.01488C41.6005 4.37627 40.8426 3.86964 40.0085 3.52392C39.1743 3.17821 38.2802 3.00018 37.3773 3C35.5537 2.99964 33.8046 3.72371 32.5149 5.01294C31.2251 6.30216 30.5004 8.05093 30.5 9.87454" stroke="#22223B" stroke-width="4.12555" stroke-linecap="round" stroke-linejoin="round"/>
<path d="M26.5905 17.0028V22.4457M17 26.629H22.6438M39.0662 26.629H44.7099M39.0662 34.8086H44.7099M17 34.8086H22.6438M26.5905 39.0579V44.5037M34.9104 39.0579V44.5037M34.8856 17V22.4457M25.3969 38.9177H36.3186C37.048 38.9177 37.7476 38.6279 38.2634 38.1121C38.7792 37.5963 39.0689 36.8967 39.0689 36.1673V25.1961C39.0689 24.4666 38.7792 23.7671 38.2634 23.2513C37.7476 22.7355 37.048 22.4457 36.3186 22.4457H25.3969C24.6674 22.4457 23.9679 22.7355 23.4521 23.2513C22.9363 23.7671 22.6465 24.4666 22.6465 25.1961V36.1673C22.6465 36.8967 22.9363 37.5963 23.4521 38.1121C23.9679 38.6279 24.6674 38.9177 25.3969 38.9177Z" stroke="#22223B" stroke-width="4.12555" stroke-linecap="round" stroke-linejoin="round"/>
</svg>
